<svg width="14" height="14" viewBox="0 0 14 14" fill="none" xmlns="http://www.w3.org/2000/svg">
<path fill-rule="evenodd" clip-rule="evenodd" d="M9.47646 10.8908C8.49566 11.5892 7.2958 12 6 12C2.68629 12 0 9.31371 0 6C0 2.68629 2.68629 0 6 0C9.31371 0 12 2.68629 12 6C12 7.29586 11.5892 8.49577 10.8907 9.47661L13.5 12.0858C13.8905 12.4763 13.8905 13.1095 13.5 13.5C13.1095 13.8905 12.4763 13.8905 12.0858 13.5L9.47646 10.8908ZM10 6C10 8.20914 8.20914 10 6 10C3.79086 10 2 8.20914 2 6C2 3.79086 3.79086 2 6 2C8.20914 2 10 3.79086 10 6Z" fill="#545454"/>
</svg>
